<svg xmlns="http://www.w3.org/2000/svg" viewBox="0 0 576 512"><!--!Font Awesome Free 6.5.1 by @fontawesome - https://fontawesome.com License - https://fontawesome.com/license/free Copyright 2024 FontAwesome, Inc.--><path d="M249.6 471.5c10.8 3.8 22.4-4.1 22.4-15.5V78.6c0-4.2-1.3-8.4-3.8-11.8C268.1 53.6 265 48 259.8 48H184c-13.3 0-24 10.7-24 24v13.4c0 8.7 4.9 16.8 12.6 20.6l.8 .4c.4 .2 .8 .4 1.2 .6c8.2 4.6 14.3 13.2 14.3 23v6.4c0 4.2-1.3 8.4-3.8 11.8C181.9 125.6 179 131 184.2 131h75.8c13.3 0 24-10.7 24-24V98.6c0-8.7-4.9-16.8-12.6-20.6l-.8-.4c-.4-.2-.8-.4-1.2-.6c-8.2-4.6-14.3-13.2-14.3-23V48c0-13.3 10.7-24 24-24h75.8c5.2 0 8.1 5.6 3.8 11.8c-2.5 3.4-3.8 7.6-3.8 11.8V456.1c0 11.4 11.6 19.3 22.4 15.5l49.6-17.6c7.3-2.6 12-9.7 12-17.3c0-2.3-.5-4.6-1.4-6.8L521.1 281c-3.6-10.1-12.7-17.6-23.4-18.4c-10.7-.8-20.4 6.3-24.4 16.2l-29.1 81.5c-4.4 12.4-18.3 18.9-30.7 14.5s-18.9-18.3-14.5-30.7l29.1-81.5c13.7-38.5 51.2-64.1 91.1-60.9c39.9 3.2 74.2 32.1 83.1 71.1l70.8 198.4c2.9 8.1 11.1 13.2 19.5 11.3c8.4-1.9 14.1-9.8 12.2-18.2l-70.8-198.4c-15.1-42.3-53.7-72.1-97.8-75.3c-44.1-3.2-85.6 20.4-105.1 60.5l29.1 81.5c4.4 12.4 18.3 18.9 30.7 14.5s18.9-18.3 14.5-30.7l-29.1-81.5c3.6-10.1 12.7-17.6 23.4-18.4c10.7-.8 20.4 6.3 24.4 16.2l70.8 198.4c1 2.8 2.6 5.3 4.9 7.1c7.3 5.7 17.4 3.8 23.1-3.5s3.8-17.4-3.5-23.1L526.4 239.8c-8.9-25-29.5-44.5-54.8-51.3c-25.3-6.8-51.8-.7-72.3 16.2l-49.6 17.6c-18.6 6.6-31.4 24.4-31.4 44.1V456.1c0 7.6 4.7 14.7 12 17.3l49.6 17.6z"/></svg>